<svg width="24" height="24" viewBox="0 0 24 24" fill="none" xmlns="http://www.w3.org/2000/svg">
<path d="M11.4611 21.2146L12.2454 22.2213L13.0354 21.219C14.3804 19.5124 15.9772 17.279 17.243 14.9995C18.4873 12.7588 19.5 10.321 19.5 8.25C19.5 4.24771 16.2523 1 12.25 1C8.24771 1 5 4.24771 5 8.25C5 10.3051 6.02792 12.7513 7.27607 14.9954C8.54722 17.2809 10.1427 19.5222 11.4611 21.2146Z" fill="#4A6176" stroke="white" stroke-width="2"/>
<path d="M12.25 11.375C13.9759 11.375 15.375 9.97589 15.375 8.25C15.375 6.52411 13.9759 5.125 12.25 5.125C10.5241 5.125 9.125 6.52411 9.125 8.25C9.125 9.97589 10.5241 11.375 12.25 11.375Z" fill="white"/>
</svg>
